<svg width="304" height="304" viewBox="0 0 304 304" fill="none" xmlns="http://www.w3.org/2000/svg">
<rect width="304" height="304" rx="24" fill="#00C875"/>
<path fill-rule="evenodd" clip-rule="evenodd" d="M126.303 123.636C122.649 137.274 129.286 151.244 141.453 157.303C143.395 158.27 144.975 159.91 145.537 162.006C146.873 166.994 142.228 171.519 137.276 170.05L126.962 166.992C125.723 166.624 124.477 166.378 123.237 166.246C117.086 165.592 110.587 166.987 105.23 170.08L70.3691 190.207C60.4535 195.932 57.0561 208.611 62.7809 218.526C68.5057 228.442 81.1849 231.839 91.1005 226.115L92.2319 225.461C110.877 214.697 133.126 212.067 153.766 218.188C158.014 219.447 162.081 221.914 165.177 225.083C165.533 225.447 165.902 225.798 166.283 226.134C168.649 228.225 170.395 231.039 171.212 234.089C174.176 245.148 185.544 251.711 196.603 248.748L235.485 238.329C246.545 235.366 253.108 223.998 250.145 212.939C247.181 201.879 235.813 195.316 224.754 198.28L215.796 200.68C207.051 203.023 198.062 197.833 195.719 189.089L189.268 165.013C188.41 161.81 191.586 159.008 194.657 160.259C205.26 164.58 217.358 159.487 221.679 148.884C225.999 138.281 220.906 126.183 210.303 121.862L173.026 106.672C169.842 105.374 166.506 104.371 163.225 103.344C162.835 103.223 162.442 103.108 162.044 103.002C146.476 98.8303 130.475 108.069 126.303 123.636Z" fill="white"/>
<path d="M96.6215 57.345C99.8431 48.6389 112.157 48.6389 115.379 57.3451L118.719 66.3728C119.732 69.11 121.89 71.2681 124.627 72.2809L133.655 75.6215C142.361 78.8431 142.361 91.1569 133.655 94.3785L124.627 97.7191C121.89 98.7319 119.732 100.89 118.719 103.627L115.379 112.655C112.157 121.361 99.8431 121.361 96.6215 112.655L93.2809 103.627C92.2681 100.89 90.11 98.7319 87.3728 97.7191L78.345 94.3785C69.6389 91.1569 69.6389 78.8431 78.3451 75.6215L87.3728 72.2809C90.11 71.2681 92.2681 69.11 93.2809 66.3728L96.6215 57.345Z" fill="white"/>
</svg>
