<svg width="24" height="25" viewBox="0 0 24 25" fill="none" xmlns="http://www.w3.org/2000/svg">
<path d="M17 9.37494C17 8.84179 16.8047 8.30864 16.4142 7.90186C16.0237 7.49506 15.5118 7.29167 15 7.29167M15 15.625C18.3137 15.625 21 12.8268 21 9.375C21 5.92322 18.3137 3.125 15 3.125C11.6863 3.125 9 5.92322 9 9.375C9 9.66008 9.01832 9.94071 9.05381 10.2157C9.11218 10.6679 9.14136 10.894 9.12172 11.0371C9.10125 11.1861 9.0752 11.2664 9.00469 11.3978C8.937 11.524 8.81771 11.6482 8.57913 11.8967L3.46863 17.2202C3.29568 17.4003 3.2092 17.4904 3.14736 17.5955C3.09253 17.6887 3.05213 17.7903 3.02763 17.8966C3 18.0165 3 18.1439 3 18.3987V20.2083C3 20.7917 3 21.0834 3.10899 21.3062C3.20487 21.5022 3.35785 21.6616 3.54601 21.7615C3.75992 21.875 4.03995 21.875 4.6 21.875H7V19.7917H9V17.7083H11L12.5791 16.0634C12.8177 15.8149 12.937 15.6906 13.0581 15.6201C13.1843 15.5467 13.2613 15.5195 13.4044 15.4982C13.5417 15.4777 13.7588 15.5081 14.193 15.5689C14.4569 15.6059 14.7263 15.625 15 15.625Z" stroke="white" stroke-width="2" stroke-linecap="round" stroke-linejoin="round"/>
</svg>
