<svg width="375" height="812" viewBox="0 0 375 812" fill="none" xmlns="http://www.w3.org/2000/svg">
<rect width="375" height="812" fill="#00C875"/>
<path fill-rule="evenodd" clip-rule="evenodd" d="M175.477 369.885C173.467 377.376 177.118 385.05 183.812 388.378C184.88 388.909 185.749 389.81 186.058 390.961V390.961C186.794 393.702 184.238 396.187 181.514 395.38L175.839 393.7C175.158 393.498 174.472 393.363 173.79 393.291C170.406 392.931 166.83 393.698 163.883 395.397V395.397L144.705 406.452C139.249 409.597 137.38 416.562 140.53 422.008C143.679 427.455 150.655 429.321 156.11 426.177L156.732 425.818C166.99 419.905 179.23 418.46 190.586 421.822V421.822V421.822C192.923 422.514 195.16 423.869 196.863 425.61C197.059 425.81 197.262 426.003 197.472 426.188C198.774 427.336 199.734 428.881 200.184 430.557V430.557C201.814 436.632 208.068 440.237 214.153 438.609L235.544 432.886C241.628 431.258 245.239 425.014 243.609 418.939C241.978 412.864 235.724 409.259 229.64 410.887L224.711 412.205C219.9 413.492 214.955 410.642 213.666 405.838L210.117 392.613C209.645 390.854 211.393 389.315 213.082 390.002V390.002C218.915 392.375 225.571 389.578 227.948 383.754C230.325 377.929 227.523 371.284 221.69 368.91L201.181 360.566V360.566C199.43 359.853 197.595 359.303 195.79 358.739C195.575 358.672 195.359 358.609 195.14 358.55C186.575 356.259 177.772 361.334 175.477 369.885Z" fill="white"/>
<path d="M158.787 332.629C160.578 327.79 167.422 327.79 169.213 332.629L171.069 337.647C171.632 339.168 172.832 340.368 174.353 340.931L179.371 342.787C184.21 344.578 184.21 351.422 179.371 353.213L174.353 355.069C172.832 355.632 171.632 356.832 171.069 358.353L169.213 363.371C167.422 368.21 160.578 368.21 158.787 363.371L156.931 358.353C156.368 356.832 155.168 355.632 153.647 355.069L148.629 353.213C143.79 351.422 143.79 344.578 148.629 342.787L153.647 340.931C155.168 340.368 156.368 339.168 156.931 337.647L158.787 332.629Z" fill="white"/>
<rect x="120" y="799" width="135" height="5" rx="2.5" fill="black"/>
</svg>
