<svg width="112" height="123" viewBox="0 0 112 123" fill="none" xmlns="http://www.w3.org/2000/svg">
<path fill-rule="evenodd" clip-rule="evenodd" d="M41.4617 51.8316C39.3948 59.5455 43.1489 67.4478 50.0315 70.8746C51.1299 71.4215 52.0237 72.3493 52.3413 73.5346V73.5346C53.0973 76.356 50.4695 78.9151 47.6691 78.0846L41.8344 76.3544C41.1339 76.1466 40.4293 76.0074 39.7279 75.9328C36.2488 75.5627 32.5721 76.3518 29.5421 78.1011V78.1011L9.82405 89.4854C4.21552 92.7234 2.2939 99.895 5.53198 105.504C8.77007 111.112 15.9417 113.034 21.5502 109.796L22.19 109.426C32.736 103.337 45.3207 101.85 56.9956 105.312V105.312V105.312C59.3984 106.025 61.6989 107.42 63.4502 109.212C63.6515 109.418 63.8599 109.616 64.075 109.806C65.4136 110.989 66.4011 112.581 66.8634 114.306V114.306C68.5395 120.561 74.9694 124.274 81.2249 122.598L103.218 116.705C109.473 115.029 113.185 108.599 111.509 102.343C109.833 96.0876 103.403 92.3754 97.1477 94.0515L92.081 95.4091C87.1348 96.7345 82.0507 93.7991 80.7254 88.8529L77.0764 75.2347C76.5911 73.4235 78.3876 71.8388 80.124 72.5464V72.5464C86.1213 74.9904 92.9643 72.1097 95.4082 66.1124C97.8521 60.1151 94.9715 53.2721 88.9742 50.8282L67.8892 42.236V42.236C66.0881 41.5021 64.2014 40.9348 62.3452 40.354C62.125 40.2851 61.9023 40.2204 61.6773 40.1601C52.8719 37.8008 43.8211 43.0262 41.4617 51.8316Z" fill="#00C875"/>
<path d="M24.6733 14.3357C26.4955 9.41132 33.4605 9.41133 35.2827 14.3357L37.1722 19.442C37.7451 20.9902 38.9658 22.2109 40.514 22.7838L45.6203 24.6733C50.5447 26.4955 50.5447 33.4605 45.6203 35.2827L40.514 37.1722C38.9658 37.7451 37.7451 38.9658 37.1722 40.514L35.2827 45.6203C33.4605 50.5447 26.4955 50.5447 24.6733 45.6203L22.7838 40.514C22.2109 38.9658 20.9902 37.7451 19.442 37.1722L14.3357 35.2827C9.41132 33.4605 9.41133 26.4955 14.3357 24.6733L19.442 22.7838C20.9902 22.2109 22.2109 20.9902 22.7838 19.442L24.6733 14.3357Z" fill="#00C875"/>
</svg>
