<svg width="128" height="126" viewBox="0 0 128 126" fill="none" xmlns="http://www.w3.org/2000/svg">
<path d="M48.8437 1.78931C49.0492 -0.134291 51.5942 -0.674355 52.5633 0.99996L66.1249 24.4302C66.8043 25.6041 68.4304 25.7756 69.3398 24.7692L87.4897 4.68255C88.7867 3.24717 91.163 4.30612 90.9629 6.2303L88.1625 33.1571C88.0222 34.5061 89.237 35.6007 90.5642 35.321L117.054 29.7388C118.947 29.3399 120.247 31.5934 118.955 33.0325L100.862 53.1706C99.9553 54.1796 100.295 55.7791 101.533 56.333L126.245 67.3874C128.011 68.1774 127.738 70.7647 125.846 71.1689L99.3721 76.8264C98.0457 77.1099 97.3801 78.6034 98.0562 79.7792L111.551 103.248C112.515 104.925 110.774 106.858 109.006 106.073L84.2624 95.0887C83.0227 94.5384 81.6063 95.3555 81.4622 96.7041L78.5852 123.623C78.3796 125.546 75.8347 126.087 74.8656 124.412L61.304 100.982C60.6246 99.808 58.9985 99.6366 58.0891 100.643L39.9392 120.73C38.6422 122.165 36.2658 121.106 36.466 119.182L39.2664 92.2551C39.4067 90.906 38.1919 89.8115 36.8647 90.0912L10.3745 95.6734C8.48149 96.0723 7.18143 93.8188 8.47433 92.3797L26.5671 72.2415C27.4736 71.2326 27.1341 69.6331 25.896 69.0792L1.18382 58.0247C-0.5821 57.2348 -0.309305 54.6475 1.58253 54.2432L28.0568 48.5857C29.3832 48.3023 30.0488 46.8088 29.3727 45.6329L15.8777 22.1642C14.9134 20.4871 16.6549 18.5543 18.423 19.3393L43.1665 30.3235C44.4062 30.8738 45.8226 30.0567 45.9667 28.708L48.8437 1.78931Z" fill="#171719"/>
<path fill-rule="evenodd" clip-rule="evenodd" d="M64.9392 25.1165L51.3776 1.68625C51.0723 1.15885 50.2707 1.32896 50.2059 1.9349L47.3289 28.8536C47.0861 31.1261 44.6995 32.5029 42.6107 31.5756L17.8672 20.5914C17.3102 20.3442 16.7616 20.953 17.0654 21.4813L30.5603 44.95C31.6996 46.9313 30.5781 49.4479 28.3431 49.9255L1.86883 55.583C1.27291 55.7103 1.18697 56.5253 1.74324 56.7741L26.4554 67.8286C28.5417 68.7619 29.1136 71.457 27.5862 73.1571L9.49343 93.2953C9.08617 93.7486 9.49569 94.4585 10.092 94.3328L36.5822 88.7506C38.8186 88.2794 40.8655 90.1236 40.629 92.3968L37.8286 119.324C37.7656 119.93 38.5141 120.263 38.9227 119.811L57.0726 99.7245C58.6049 98.0287 61.3448 98.3176 62.4897 100.296L76.0513 123.726C76.3566 124.253 77.1582 124.083 77.223 123.477L80.0999 96.5585C80.3428 94.286 82.7293 92.9092 84.8182 93.8365L109.562 104.821C110.119 105.068 110.667 104.459 110.363 103.931L96.8686 80.4621C95.7293 78.4809 96.8508 75.9643 99.0858 75.4867L125.56 69.8292C126.156 69.7019 126.242 68.8869 125.686 68.638L100.973 57.5835C98.8872 56.6503 98.3153 53.9551 99.8427 52.255L117.935 32.1169C118.343 31.6636 117.933 30.9537 117.337 31.0794L90.8466 36.6616C88.6103 37.1328 86.5634 35.2885 86.7998 33.0154L89.6003 6.08858C89.6633 5.48247 88.9148 5.14889 88.5062 5.60104L70.3563 25.6877C68.824 27.3834 66.084 27.0945 64.9392 25.1165ZM52.5633 0.99996C51.5942 -0.674355 49.0492 -0.134291 48.8437 1.78931L45.9667 28.708C45.8226 30.0567 44.4062 30.8738 43.1665 30.3235L18.423 19.3393C16.6549 18.5543 14.9134 20.4871 15.8777 22.1642L29.3727 45.6329C30.0488 46.8088 29.3832 48.3023 28.0568 48.5857L1.58253 54.2432C-0.309305 54.6475 -0.5821 57.2348 1.18382 58.0247L25.896 69.0792C27.1341 69.6331 27.4736 71.2326 26.5671 72.2415L8.47433 92.3797C7.18143 93.8188 8.48149 96.0723 10.3745 95.6734L36.8647 90.0912C38.1919 89.8115 39.4067 90.906 39.2664 92.2551L36.466 119.182C36.2658 121.106 38.6422 122.165 39.9392 120.73L58.0891 100.643C58.9985 99.6366 60.6246 99.808 61.304 100.982L74.8656 124.412C75.8347 126.087 78.3796 125.546 78.5852 123.623L81.4622 96.7041C81.6063 95.3555 83.0227 94.5384 84.2624 95.0887L109.006 106.073C110.774 106.858 112.515 104.925 111.551 103.248L98.0562 79.7792C97.3801 78.6034 98.0457 77.1099 99.3721 76.8264L125.846 71.1689C127.738 70.7647 128.011 68.1774 126.245 67.3874L101.533 56.333C100.295 55.7791 99.9553 54.1796 100.862 53.1706L118.955 33.0325C120.247 31.5934 118.947 29.3399 117.054 29.7388L90.5642 35.321C89.237 35.6007 88.0222 34.5061 88.1625 33.1571L90.9629 6.2303C91.163 4.30612 88.7867 3.24717 87.4897 4.68255L69.3398 24.7692C68.4304 25.7756 66.8043 25.6041 66.1249 24.4302L52.5633 0.99996Z" fill="#A9FBD9"/>
</svg>
