<svg width="491" height="124" viewBox="0 0 491 124" fill="none" xmlns="http://www.w3.org/2000/svg">
<path fill-rule="evenodd" clip-rule="evenodd" d="M420.462 51.8316C418.395 59.5455 422.149 67.4478 429.031 70.8746C430.13 71.4215 431.024 72.3493 431.341 73.5346C432.097 76.356 429.469 78.9151 426.669 78.0846L420.834 76.3544C420.134 76.1466 419.429 76.0074 418.728 75.9328C415.249 75.5627 411.572 76.3518 408.542 78.1011L388.824 89.4854C383.215 92.7234 381.294 99.895 384.532 105.504C387.77 111.112 394.942 113.034 400.55 109.796L401.19 109.426C411.736 103.337 424.321 101.85 435.996 105.312C438.398 106.025 440.699 107.42 442.45 109.212C442.651 109.418 442.86 109.616 443.075 109.806C444.414 110.989 445.401 112.581 445.863 114.306C447.54 120.561 453.969 124.274 460.225 122.598L482.218 116.705C488.473 115.029 492.185 108.599 490.509 102.343C488.833 96.0876 482.403 92.3754 476.148 94.0515L471.081 95.4091C466.135 96.7345 461.051 93.7991 459.725 88.8529L456.076 75.2347C455.591 73.4235 457.388 71.8388 459.124 72.5464C465.121 74.9904 471.964 72.1097 474.408 66.1124C476.852 60.1151 473.971 53.2721 467.974 50.8282L446.889 42.236C445.088 41.5021 443.201 40.9348 441.345 40.354C441.125 40.2851 440.902 40.2204 440.677 40.1602C431.872 37.8008 422.821 43.0262 420.462 51.8316Z" fill="#00C875"/>
<path d="M403.673 14.3357C405.496 9.41132 412.461 9.41133 414.283 14.3357L416.172 19.442C416.745 20.9902 417.966 22.2109 419.514 22.7838L424.62 24.6733C429.545 26.4955 429.545 33.4605 424.62 35.2827L419.514 37.1722C417.966 37.7451 416.745 38.9658 416.172 40.514L414.283 45.6203C412.461 50.5447 405.495 50.5447 403.673 45.6203L401.784 40.514C401.211 38.9658 399.99 37.7451 398.442 37.1722L393.336 35.2827C388.411 33.4605 388.411 26.4955 393.336 24.6733L398.442 22.7838C399.99 22.2109 401.211 20.9902 401.784 19.442L403.673 14.3357Z" fill="#00C875"/>
<path d="M335.661 93.4009C335.661 92.56 334.979 91.8783 334.138 91.8783H283.355C282.25 91.8783 281.355 90.9829 281.355 89.8783V83.017C281.355 81.9124 282.25 81.017 283.355 81.017H306.122C307.019 81.017 307.746 80.2899 307.746 79.3929C307.746 78.4959 307.019 77.7688 306.122 77.7688H274.523C273.419 77.7688 272.523 76.8733 272.523 75.7688V68.1969C272.523 67.0924 273.419 66.1969 274.523 66.1969H358.53C359.635 66.1969 360.53 67.0924 360.53 68.1969V75.7688C360.53 76.8733 359.635 77.7688 358.53 77.7688H327.033C326.136 77.7688 325.409 78.4959 325.409 79.3929C325.409 80.2899 326.136 81.017 327.033 81.017H350.308C351.413 81.017 352.308 81.9124 352.308 83.017V102.871C352.308 103.976 351.413 104.871 350.308 104.871H298.953C298.147 104.871 297.494 105.524 297.494 106.33C297.494 107.018 297.976 107.613 298.649 107.756L316.178 111.486C316.442 111.542 316.714 111.544 316.979 111.492L340.749 106.837C340.876 106.812 341.004 106.8 341.133 106.8H350.41C351.514 106.8 352.41 107.695 352.41 108.8V114.492C352.41 115.448 351.732 116.271 350.793 116.455L316.981 123.064C316.715 123.116 316.441 123.113 316.176 123.056L282.425 115.769C281.504 115.57 280.847 114.756 280.847 113.814V96.9235C280.847 95.8189 281.742 94.9235 282.847 94.9235H334.138C334.979 94.9235 335.661 94.2418 335.661 93.4009ZM282.847 42.9517C281.742 42.9517 280.847 42.0563 280.847 40.9517V33.4814C280.847 32.3768 281.742 31.4814 282.847 31.4814H305.746C306.851 31.4814 307.746 30.586 307.746 29.4814V28C307.746 26.8954 308.642 26 309.746 26H323.307C324.412 26 325.307 26.8954 325.307 28V29.4814C325.307 30.586 326.203 31.4814 327.307 31.4814H350.207C351.311 31.4814 352.207 32.3768 352.207 33.4814V40.9517C352.207 42.0563 351.311 42.9517 350.207 42.9517H326.383C325.789 42.9517 325.307 43.4333 325.307 44.0273C325.307 44.427 325.529 44.7938 325.883 44.9796L338.98 51.8581C339.267 52.0087 339.586 52.0874 339.91 52.0874H351.222C352.326 52.0874 353.222 52.9828 353.222 54.0874V61.6492C353.222 62.7577 352.32 63.6547 351.212 63.6491L333.514 63.5602C333.191 63.5586 332.873 63.4785 332.587 63.3267L317.512 55.3242C316.928 55.0139 316.227 55.0129 315.642 55.3216L300.267 63.4284C299.979 63.58 299.659 63.6592 299.334 63.6592H281.832C280.727 63.6592 279.832 62.7638 279.832 61.6592V54.0874C279.832 52.9828 280.727 52.0874 281.832 52.0874H293.144C293.468 52.0874 293.787 52.0087 294.074 51.8581L307.171 44.9796C307.525 44.7938 307.746 44.427 307.746 44.0273C307.746 43.4333 307.265 42.9517 306.671 42.9517H282.847Z" fill="#00C875"/>
<path d="M229.523 44.0683C230.627 44.0683 231.523 44.9637 231.523 46.0683V53.5387C231.523 54.6432 230.627 55.5387 229.523 55.5387H202.563C201.458 55.5387 200.563 56.4341 200.563 57.5387V58.1065C200.563 59.211 201.458 60.1065 202.563 60.1065H233.075C234.18 60.1065 235.075 61.0019 235.075 62.1065V69.9828C235.075 71.0874 234.18 71.9828 233.075 71.9828H186.017C184.913 71.9828 184.017 71.0874 184.017 69.9828V29.8271C184.017 28.7226 184.913 27.8271 186.017 27.8271H231.045C232.15 27.8271 233.045 28.7226 233.045 29.8271V37.602C233.045 38.7066 232.15 39.602 231.045 39.602H202.563C201.458 39.602 200.563 40.4974 200.563 41.602V42.0683C200.563 43.1729 201.458 44.0683 202.563 44.0683H229.523ZM262.148 55.3356C261.043 55.3356 260.148 56.2311 260.148 57.3356V70.6934C260.148 71.798 259.252 72.6934 258.148 72.6934H244.993C243.888 72.6934 242.993 71.798 242.993 70.6934V28C242.993 26.8954 243.888 26 244.993 26H258.148C259.252 26 260.148 26.8954 260.148 28V40.2412C260.148 41.3457 261.043 42.2412 262.148 42.2412H269.212C270.316 42.2412 271.212 43.1366 271.212 44.2412V53.3356C271.212 54.4402 270.316 55.3356 269.212 55.3356H262.148ZM192.585 115.778C191.671 115.573 191.021 114.762 191.021 113.826V93.4723C191.021 92.3677 191.917 91.4723 193.021 91.4723H241.318C242.243 91.4723 242.993 90.7224 242.993 89.7974C242.993 88.8724 242.243 88.1225 241.318 88.1225H193.732C192.627 88.1225 191.732 87.2271 191.732 86.1225V77.9416C191.732 76.8371 192.627 75.9416 193.732 75.9416H258.148C259.252 75.9416 260.148 76.8371 260.148 77.9416V101.044C260.148 102.149 259.252 103.044 258.148 103.044H209.7C208.858 103.044 208.176 103.727 208.176 104.569C208.176 105.28 208.668 105.897 209.361 106.055L225.101 109.645C225.386 109.71 225.682 109.712 225.968 109.65L246.946 105.119C247.085 105.089 247.226 105.074 247.368 105.074H258.351C259.455 105.074 260.351 105.97 260.351 107.074V113.92C260.351 114.86 259.696 115.673 258.778 115.873L225.966 123.048C225.681 123.11 225.386 123.11 225.102 123.046L192.585 115.778Z" fill="#00C875"/>
<path d="M152.659 87.7879C152.659 86.6833 151.764 85.7879 150.659 85.7879H99.8453C98.7407 85.7879 97.8453 84.8925 97.8453 83.7879V75.81C97.8453 74.7055 98.7407 73.81 99.8453 73.81H168.322C169.426 73.81 170.322 74.7055 170.322 75.81V100.232C170.322 101.337 169.426 102.232 168.322 102.232H117.508C116.403 102.232 115.508 103.128 115.508 104.232V104.475C115.508 105.417 116.165 106.231 117.085 106.43L132.98 109.862C133.239 109.918 133.507 109.922 133.768 109.873L158.771 105.21C158.892 105.187 159.015 105.176 159.138 105.176H168.423C169.528 105.176 170.423 106.071 170.423 107.176V114.481C170.423 115.443 169.739 116.268 168.795 116.446L133.772 123.067C133.509 123.117 133.238 123.113 132.976 123.056L99.4209 115.77C98.5013 115.571 97.8453 114.757 97.8453 113.816V92.3557C97.8453 91.2512 98.7407 90.3557 99.8453 90.3557H150.659C151.764 90.3557 152.659 89.4603 152.659 88.3557V87.7879ZM175.833 57.5688C176.938 57.5688 177.833 58.4643 177.833 59.5688V67.6482C177.833 68.7528 176.938 69.6482 175.833 69.6482H91.8262C90.7216 69.6482 89.8262 68.7528 89.8262 67.6482V59.5688C89.8262 58.4643 90.7216 57.5688 91.8262 57.5688H175.833ZM152.761 42.3126C152.761 41.208 151.865 40.3126 150.761 40.3126H101.165C100.06 40.3126 99.1649 39.4172 99.1649 38.3126V30.3347C99.1649 29.2301 100.06 28.3347 101.165 28.3347H167.611C168.716 28.3347 169.611 29.2301 169.611 30.3347V51.3055C169.611 52.4101 168.716 53.3055 167.611 53.3055H154.761C153.656 53.3055 152.761 52.4101 152.761 51.3055V42.3126Z" fill="#00C875"/>
<path d="M67.8783 77.4642C66.7737 77.4642 65.8783 76.5688 65.8783 75.4642V60.4824C65.8783 59.3778 64.9829 58.4824 63.8783 58.4824H51.1296C50.025 58.4824 49.1296 57.5869 49.1296 56.4824V47.3879C49.1296 46.2833 50.025 45.3879 51.1296 45.3879H63.8783C64.9829 45.3879 65.8783 44.4925 65.8783 43.3879V28C65.8783 26.8954 66.7737 26 67.8783 26H81.033C82.1376 26 83.033 26.8954 83.033 28V75.4642C83.033 76.5688 82.1376 77.4642 81.033 77.4642H67.8783ZM47.5356 27.7256C48.6402 27.7256 49.5356 28.6211 49.5356 29.7256V38.6171C49.5356 39.7216 48.6402 40.6171 47.5356 40.6171H36.3095C35.2049 40.6171 34.3095 41.5125 34.3095 42.6171V51.9586C34.3095 52.3726 34.438 52.7764 34.6772 53.1143L41.8323 63.2209C42.2072 63.7505 42.8158 64.0653 43.4646 64.0653H49.5658C50.6703 64.0653 51.5658 64.9607 51.5658 66.0653V75.2612C51.5658 76.3658 50.6703 77.2612 49.5658 77.2612H34.5356C33.8847 77.2612 33.2746 76.9445 32.9 76.4122L27.4185 68.6227C26.6219 67.4907 24.9439 67.4907 24.1473 68.6227L18.6658 76.4122C18.2912 76.9445 17.681 77.2612 17.0302 77.2612H2C0.895432 77.2612 0 76.3658 0 75.2612V66.0653C0 64.9607 0.895431 64.0653 2 64.0653H8.10112C8.74998 64.0653 9.35852 63.7505 9.73345 63.2209L16.8886 53.1143C17.1278 52.7764 17.2563 52.3726 17.2563 51.9586V42.6171C17.2563 41.5125 16.3608 40.6171 15.2563 40.6171H3.82713C2.72256 40.6171 1.82713 39.7216 1.82713 38.6171V29.7256C1.82713 28.6211 2.72256 27.7256 3.82713 27.7256H47.5356ZM64.8677 105.166C65.3156 104.786 65.5738 104.228 65.5738 103.641V99.6052C65.5738 99.0179 65.3156 98.4602 64.8677 98.0802L62.7838 96.3121C62.4224 96.0054 61.9638 95.8371 61.4899 95.8371H33.521C33.0471 95.8371 32.5885 96.0054 32.2271 96.3121L30.1432 98.0802C29.6953 98.4602 29.4371 99.0179 29.4371 99.6052V103.641C29.4371 104.228 29.6953 104.786 30.1432 105.166L32.2271 106.934C32.5885 107.241 33.0471 107.409 33.521 107.409H61.4899C61.9638 107.409 62.4224 107.241 62.7838 106.934L64.8677 105.166ZM12.9933 111.053C12.5425 110.673 12.2824 110.114 12.2824 109.524V93.7217C12.2824 93.1321 12.5425 92.5726 12.9933 92.1925L24.0063 82.9089C24.367 82.6049 24.8235 82.4381 25.2953 82.4381H69.7156C70.1874 82.4381 70.644 82.6049 71.0047 82.9089L82.0176 92.1925C82.4684 92.5725 82.7285 93.1321 82.7285 93.7217V109.524C82.7285 110.114 82.4684 110.673 82.0176 111.053L71.0047 120.337C70.644 120.641 70.1874 120.808 69.7156 120.808H25.2953C24.8235 120.808 24.367 120.641 24.0063 120.337L12.9933 111.053Z" fill="#00C875"/>
</svg>
