<svg width="327" height="505" viewBox="0 0 327 505" fill="none" xmlns="http://www.w3.org/2000/svg">
<g clip-path="url(#clip0_106_1741)">
<path fill-rule="evenodd" clip-rule="evenodd" d="M16 0C7.16344 0 0 7.16343 0 16V318.002C0.0632654 318.001 0.126734 318 0.190396 318C4.16154 318 7.38079 321.134 7.38079 325C7.38079 328.866 4.16154 332 0.190396 332C0.126734 332 0.0632654 331.999 0 331.998V489C0 497.837 7.16345 505 16 505H310C318.837 505 326 497.837 326 489V331.998C325.937 331.999 325.873 332 325.81 332C321.838 332 318.619 328.866 318.619 325C318.619 321.134 321.838 318 325.81 318C325.873 318 325.937 318.001 326 318.002V16C326 7.16344 318.837 0 310 0H16ZM29.8508 332C33.8219 332 37.0412 328.866 37.0412 325C37.0412 321.134 33.8219 318 29.8508 318C25.8796 318 22.6604 321.134 22.6604 325C22.6604 328.866 25.8796 332 29.8508 332ZM66.7016 325C66.7016 328.866 63.4823 332 59.5112 332C55.54 332 52.3208 328.866 52.3208 325C52.3208 321.134 55.54 318 59.5112 318C63.4823 318 66.7016 321.134 66.7016 325ZM89.1715 332C93.1427 332 96.3619 328.866 96.3619 325C96.3619 321.134 93.1427 318 89.1715 318C85.2004 318 81.9812 321.134 81.9812 325C81.9812 328.866 85.2004 332 89.1715 332ZM126.022 325C126.022 328.866 122.803 332 118.832 332C114.861 332 111.642 328.866 111.642 325C111.642 321.134 114.861 318 118.832 318C122.803 318 126.022 321.134 126.022 325ZM148.492 332C152.463 332 155.683 328.866 155.683 325C155.683 321.134 152.463 318 148.492 318C144.521 318 141.302 321.134 141.302 325C141.302 328.866 144.521 332 148.492 332ZM185.343 325C185.343 328.866 182.124 332 178.153 332C174.182 332 170.962 328.866 170.962 325C170.962 321.134 174.182 318 178.153 318C182.124 318 185.343 321.134 185.343 325ZM207.813 332C211.784 332 215.003 328.866 215.003 325C215.003 321.134 211.784 318 207.813 318C203.842 318 200.623 321.134 200.623 325C200.623 328.866 203.842 332 207.813 332ZM244.664 325C244.664 328.866 241.445 332 237.473 332C233.502 332 230.283 328.866 230.283 325C230.283 321.134 233.502 318 237.473 318C241.445 318 244.664 321.134 244.664 325ZM267.134 332C271.105 332 274.324 328.866 274.324 325C274.324 321.134 271.105 318 267.134 318C263.163 318 259.943 321.134 259.943 325C259.943 328.866 263.163 332 267.134 332ZM303.985 325C303.985 328.866 300.765 332 296.794 332C292.823 332 289.604 328.866 289.604 325C289.604 321.134 292.823 318 296.794 318C300.765 318 303.985 321.134 303.985 325Z" fill="url(#paint0_linear_106_1741)"/>
<path fill-rule="evenodd" clip-rule="evenodd" d="M16 1C7.71573 1 1 7.71572 1 16V317.039C5.12306 317.435 8.38079 320.826 8.38079 325C8.38079 329.174 5.12306 332.565 1 332.961V489C1 497.284 7.71574 504 16 504H310C318.284 504 325 497.284 325 489V332.961C320.877 332.565 317.619 329.174 317.619 325C317.619 320.826 320.877 317.435 325 317.039V16C325 7.71573 318.284 1 310 1H16ZM326 16C326 7.16344 318.837 0 310 0H16C7.16344 0 0 7.16343 0 16V318.002C0.0632654 318.001 0.126734 318 0.190396 318C0.254118 318 0.317646 318.001 0.38097 318.002C4.26403 318.101 7.38079 321.196 7.38079 325C7.38079 328.804 4.26403 331.899 0.38097 331.998C0.317646 331.999 0.254118 332 0.190396 332C0.126734 332 0.0632654 331.999 0 331.998V489C0 497.837 7.16345 505 16 505H310C318.837 505 326 497.837 326 489V331.998C325.968 331.998 325.935 331.999 325.903 331.999C325.872 332 325.841 332 325.81 332C325.746 332 325.682 331.999 325.619 331.998C321.736 331.899 318.619 328.804 318.619 325C318.619 321.196 321.736 318.101 325.619 318.002C325.682 318.001 325.746 318 325.81 318C325.873 318 325.937 318.001 326 318.002V16ZM38.0412 325C38.0412 329.443 34.3487 333 29.8508 333C25.3528 333 21.6604 329.443 21.6604 325C21.6604 320.557 25.3528 317 29.8508 317C34.3487 317 38.0412 320.557 38.0412 325ZM67.7016 325C67.7016 329.443 64.0091 333 59.5112 333C55.0132 333 51.3208 329.443 51.3208 325C51.3208 320.557 55.0132 317 59.5112 317C64.0091 317 67.7016 320.557 67.7016 325ZM97.3619 325C97.3619 329.443 93.6695 333 89.1715 333C84.6736 333 80.9812 329.443 80.9812 325C80.9812 320.557 84.6736 317 89.1715 317C93.6695 317 97.3619 320.557 97.3619 325ZM127.022 325C127.022 329.443 123.33 333 118.832 333C114.334 333 110.642 329.443 110.642 325C110.642 320.557 114.334 317 118.832 317C123.33 317 127.022 320.557 127.022 325ZM156.683 325C156.683 329.443 152.99 333 148.492 333C143.994 333 140.302 329.443 140.302 325C140.302 320.557 143.994 317 148.492 317C152.99 317 156.683 320.557 156.683 325ZM186.343 325C186.343 329.443 182.651 333 178.153 333C173.655 333 169.962 329.443 169.962 325C169.962 320.557 173.655 317 178.153 317C182.651 317 186.343 320.557 186.343 325ZM216.003 325C216.003 329.443 212.311 333 207.813 333C203.315 333 199.623 329.443 199.623 325C199.623 320.557 203.315 317 207.813 317C212.311 317 216.003 320.557 216.003 325ZM245.664 325C245.664 329.443 241.971 333 237.473 333C232.975 333 229.283 329.443 229.283 325C229.283 320.557 232.975 317 237.473 317C241.971 317 245.664 320.557 245.664 325ZM275.324 325C275.324 329.443 271.632 333 267.134 333C262.636 333 258.943 329.443 258.943 325C258.943 320.557 262.636 317 267.134 317C271.632 317 275.324 320.557 275.324 325ZM304.985 325C304.985 329.443 301.292 333 296.794 333C292.296 333 288.604 329.443 288.604 325C288.604 320.557 292.296 317 296.794 317C301.292 317 304.985 320.557 304.985 325ZM37.0412 325C37.0412 328.866 33.8219 332 29.8508 332C25.8796 332 22.6604 328.866 22.6604 325C22.6604 321.134 25.8796 318 29.8508 318C33.8219 318 37.0412 321.134 37.0412 325ZM59.5112 332C63.4823 332 66.7016 328.866 66.7016 325C66.7016 321.134 63.4823 318 59.5112 318C55.54 318 52.3208 321.134 52.3208 325C52.3208 328.866 55.54 332 59.5112 332ZM96.3619 325C96.3619 328.866 93.1427 332 89.1715 332C85.2004 332 81.9812 328.866 81.9812 325C81.9812 321.134 85.2004 318 89.1715 318C93.1427 318 96.3619 321.134 96.3619 325ZM118.832 332C122.803 332 126.022 328.866 126.022 325C126.022 321.134 122.803 318 118.832 318C114.861 318 111.642 321.134 111.642 325C111.642 328.866 114.861 332 118.832 332ZM155.683 325C155.683 328.866 152.463 332 148.492 332C144.521 332 141.302 328.866 141.302 325C141.302 321.134 144.521 318 148.492 318C152.463 318 155.683 321.134 155.683 325ZM178.153 332C182.124 332 185.343 328.866 185.343 325C185.343 321.134 182.124 318 178.153 318C174.182 318 170.962 321.134 170.962 325C170.962 328.866 174.182 332 178.153 332ZM215.003 325C215.003 328.866 211.784 332 207.813 332C203.842 332 200.623 328.866 200.623 325C200.623 321.134 203.842 318 207.813 318C211.784 318 215.003 321.134 215.003 325ZM237.473 332C241.445 332 244.664 328.866 244.664 325C244.664 321.134 241.445 318 237.473 318C233.502 318 230.283 321.134 230.283 325C230.283 328.866 233.502 332 237.473 332ZM274.324 325C274.324 328.866 271.105 332 267.134 332C263.163 332 259.943 328.866 259.943 325C259.943 321.134 263.163 318 267.134 318C271.105 318 274.324 321.134 274.324 325ZM296.794 332C300.765 332 303.985 328.866 303.985 325C303.985 321.134 300.765 318 296.794 318C292.823 318 289.604 321.134 289.604 325C289.604 328.866 292.823 332 296.794 332Z" fill="url(#paint1_linear_106_1741)"/>
<path fill-rule="evenodd" clip-rule="evenodd" d="M192.47 341.153C188.2 357.072 195.955 373.379 210.172 380.451C212.441 381.58 214.287 383.495 214.943 385.941C216.505 391.763 211.076 397.045 205.291 395.331L193.24 391.76C191.792 391.332 190.336 391.044 188.887 390.89C181.701 390.127 174.106 391.755 167.848 395.365L127.116 418.859C115.53 425.541 111.56 440.341 118.249 451.915C124.938 463.49 139.753 467.455 151.338 460.773L152.66 460.011C174.445 447.445 200.441 444.376 224.558 451.52C229.521 452.991 234.273 455.869 237.891 459.569C238.307 459.994 238.738 460.404 239.183 460.796C241.948 463.236 243.988 466.521 244.943 470.081C248.405 482.99 261.688 490.651 274.61 487.192L320.04 475.031C332.963 471.572 340.631 458.303 337.169 445.393C333.706 432.484 320.424 424.823 307.502 428.282L297.035 431.084C286.817 433.819 276.314 427.761 273.577 417.554L266.039 389.45C265.036 385.712 268.748 382.442 272.335 383.902C284.724 388.945 298.86 383.001 303.908 370.624C308.957 358.247 303.006 344.126 290.617 339.082L247.062 321.35C243.341 319.836 239.444 318.665 235.61 317.467C235.155 317.324 234.695 317.191 234.23 317.066C216.04 312.197 197.344 322.981 192.47 341.153Z" fill="white" fill-opacity="0.1"/>
<path d="M156.945 261.693C160.74 251.436 175.248 251.436 179.044 261.693L182.98 272.329C184.173 275.554 186.716 278.097 189.941 279.29L200.577 283.226C210.834 287.022 210.834 301.53 200.577 305.325L189.941 309.261C186.716 310.454 184.173 312.997 182.98 316.222L179.044 326.858C175.248 337.116 160.74 337.116 156.945 326.858L153.009 316.222C151.816 312.997 149.273 310.454 146.048 309.261L135.412 305.325C125.154 301.53 125.154 287.022 135.412 283.226L146.048 279.29C149.273 278.097 151.816 275.554 153.009 272.329L156.945 261.693Z" fill="white" fill-opacity="0.1"/>
<path d="M19.5309 14.7191C20.379 12.427 23.621 12.427 24.4691 14.7191L25.3486 17.0959C25.6153 17.8165 26.1835 18.3847 26.9041 18.6514L29.2809 19.5309C31.573 20.379 31.573 23.621 29.2809 24.4691L26.9041 25.3486C26.1835 25.6153 25.6153 26.1835 25.3486 26.9041L24.4691 29.2809C23.621 31.573 20.379 31.573 19.5309 29.2809L18.6514 26.9041C18.3847 26.1835 17.8165 25.6153 17.0959 25.3486L14.7191 24.4691C12.427 23.621 12.427 20.379 14.7191 19.5309L17.0959 18.6514C17.8165 18.3847 18.3847 17.8165 18.6514 17.0959L19.5309 14.7191Z" fill="#A9FBD9"/>
<path d="M302.531 14.7191C303.379 12.427 306.621 12.427 307.469 14.7191L308.349 17.0959C308.615 17.8165 309.183 18.3847 309.904 18.6514L312.281 19.5309C314.573 20.379 314.573 23.621 312.281 24.4691L309.904 25.3486C309.183 25.6153 308.615 26.1835 308.349 26.9041L307.469 29.2809C306.621 31.573 303.379 31.573 302.531 29.2809L301.651 26.9041C301.385 26.1835 300.817 25.6153 300.096 25.3486L297.719 24.4691C295.427 23.621 295.427 20.379 297.719 19.5309L300.096 18.6514C300.817 18.3847 301.385 17.8165 301.651 17.0959L302.531 14.7191Z" fill="#A9FBD9"/>
<path d="M19.5309 475.719C20.379 473.427 23.621 473.427 24.4691 475.719L25.3486 478.096C25.6153 478.817 26.1835 479.385 26.9041 479.651L29.2809 480.531C31.573 481.379 31.573 484.621 29.2809 485.469L26.9041 486.349C26.1835 486.615 25.6153 487.183 25.3486 487.904L24.4691 490.281C23.621 492.573 20.379 492.573 19.5309 490.281L18.6514 487.904C18.3847 487.183 17.8165 486.615 17.0959 486.349L14.7191 485.469C12.427 484.621 12.427 481.379 14.7191 480.531L17.0959 479.651C17.8165 479.385 18.3847 478.817 18.6514 478.096L19.5309 475.719Z" fill="#A9FBD9"/>
<path d="M302.531 475.719C303.379 473.427 306.621 473.427 307.469 475.719L308.349 478.096C308.615 478.817 309.183 479.385 309.904 479.651L312.281 480.531C314.573 481.379 314.573 484.621 312.281 485.469L309.904 486.349C309.183 486.615 308.615 487.183 308.349 487.904L307.469 490.281C306.621 492.573 303.379 492.573 302.531 490.281L301.651 487.904C301.385 487.183 300.817 486.615 300.096 486.349L297.719 485.469C295.427 484.621 295.427 481.379 297.719 480.531L300.096 479.651C300.817 479.385 301.385 478.817 301.651 478.096L302.531 475.719Z" fill="#A9FBD9"/>
</g>
<defs>
<linearGradient id="paint0_linear_106_1741" x1="169" y1="0" x2="169" y2="505" gradientUnits="userSpaceOnUse">
<stop stop-color="#024328"/>
<stop offset="1" stop-color="#00C875"/>
</linearGradient>
<linearGradient id="paint1_linear_106_1741" x1="169" y1="0" x2="169" y2="505" gradientUnits="userSpaceOnUse">
<stop stop-color="#024328"/>
<stop offset="1" stop-color="#00C875"/>
</linearGradient>
<clipPath id="clip0_106_1741">
<rect width="327" height="505" fill="white"/>
</clipPath>
</defs>
</svg>
