<svg width="361" height="98" viewBox="0 0 361 98" fill="none" xmlns="http://www.w3.org/2000/svg">
<path d="M335.661 67.4009C335.661 66.56 334.979 65.8783 334.138 65.8783H283.355C282.25 65.8783 281.355 64.9829 281.355 63.8783V57.017C281.355 55.9124 282.25 55.017 283.355 55.017H306.122C307.019 55.017 307.746 54.2899 307.746 53.3929C307.746 52.4959 307.019 51.7688 306.122 51.7688H274.523C273.419 51.7688 272.523 50.8733 272.523 49.7688V42.1969C272.523 41.0924 273.419 40.1969 274.523 40.1969H358.53C359.635 40.1969 360.53 41.0924 360.53 42.1969V49.7688C360.53 50.8733 359.635 51.7688 358.53 51.7688H327.033C326.136 51.7688 325.409 52.4959 325.409 53.3929C325.409 54.2899 326.136 55.017 327.033 55.017H350.308C351.413 55.017 352.308 55.9124 352.308 57.017V76.8712C352.308 77.9758 351.413 78.8712 350.308 78.8712H298.953C298.147 78.8712 297.494 79.5242 297.494 80.3297C297.494 81.0182 297.976 81.6129 298.649 81.7562L316.178 85.4857C316.442 85.5418 316.714 85.544 316.979 85.4922L340.749 80.8372C340.876 80.8124 341.004 80.7999 341.133 80.7999H350.41C351.514 80.7999 352.41 81.6953 352.41 82.7999V88.4917C352.41 89.4483 351.732 90.271 350.793 90.4545L316.981 97.0637C316.715 97.1157 316.441 97.113 316.176 97.0558L282.425 89.7687C281.504 89.5699 280.847 88.7557 280.847 87.8137V70.9235C280.847 69.8189 281.742 68.9235 282.847 68.9235H334.138C334.979 68.9235 335.661 68.2418 335.661 67.4009ZM282.847 16.9517C281.742 16.9517 280.847 16.0563 280.847 14.9517V7.4814C280.847 6.37683 281.742 5.4814 282.847 5.4814H305.746C306.851 5.4814 307.746 4.58597 307.746 3.4814V2C307.746 0.895429 308.642 0 309.746 0H323.307C324.412 0 325.307 0.895431 325.307 2V3.4814C325.307 4.58597 326.203 5.4814 327.307 5.4814H350.207C351.311 5.4814 352.207 6.37683 352.207 7.4814V14.9517C352.207 16.0563 351.311 16.9517 350.207 16.9517H326.383C325.789 16.9517 325.307 17.4333 325.307 18.0273C325.307 18.427 325.529 18.7938 325.883 18.9796L338.98 25.8581C339.267 26.0087 339.586 26.0874 339.91 26.0874H351.222C352.326 26.0874 353.222 26.9828 353.222 28.0874V35.6492C353.222 36.7577 352.32 37.6547 351.212 37.6491L333.514 37.5602C333.191 37.5586 332.873 37.4785 332.587 37.3267L317.512 29.3242C316.928 29.0139 316.227 29.0129 315.642 29.3216L300.267 37.4284C299.979 37.58 299.659 37.6592 299.334 37.6592H281.832C280.727 37.6592 279.832 36.7638 279.832 35.6592V28.0874C279.832 26.9828 280.727 26.0874 281.832 26.0874H293.144C293.468 26.0874 293.787 26.0087 294.074 25.8581L307.171 18.9796C307.525 18.7938 307.746 18.427 307.746 18.0273C307.746 17.4333 307.265 16.9517 306.671 16.9517H282.847Z" fill="#00C875"/>
<path d="M229.523 18.0683C230.627 18.0683 231.523 18.9637 231.523 20.0683V27.5387C231.523 28.6432 230.627 29.5387 229.523 29.5387H202.563C201.458 29.5387 200.563 30.4341 200.563 31.5387V32.1065C200.563 33.211 201.458 34.1065 202.563 34.1065H233.075C234.18 34.1065 235.075 35.0019 235.075 36.1065V43.9828C235.075 45.0874 234.18 45.9828 233.075 45.9828H186.017C184.913 45.9828 184.017 45.0874 184.017 43.9828V3.82713C184.017 2.72256 184.913 1.82713 186.017 1.82713H231.045C232.15 1.82713 233.045 2.72256 233.045 3.82713V11.602C233.045 12.7066 232.15 13.602 231.045 13.602H202.563C201.458 13.602 200.563 14.4974 200.563 15.602V16.0683C200.563 17.1729 201.458 18.0683 202.563 18.0683H229.523ZM262.148 29.3356C261.043 29.3356 260.148 30.2311 260.148 31.3356V44.6934C260.148 45.798 259.252 46.6934 258.148 46.6934H244.993C243.888 46.6934 242.993 45.798 242.993 44.6934V2C242.993 0.895431 243.888 0 244.993 0H258.148C259.252 0 260.148 0.895431 260.148 2V14.2412C260.148 15.3457 261.043 16.2412 262.148 16.2412H269.212C270.316 16.2412 271.212 17.1366 271.212 18.2412V27.3356C271.212 28.4402 270.316 29.3356 269.212 29.3356H262.148ZM192.585 89.7775C191.671 89.5733 191.021 88.7622 191.021 87.8257V67.4723C191.021 66.3677 191.917 65.4723 193.021 65.4723H241.318C242.243 65.4723 242.993 64.7224 242.993 63.7974C242.993 62.8724 242.243 62.1225 241.318 62.1225H193.732C192.627 62.1225 191.732 61.2271 191.732 60.1225V51.9416C191.732 50.8371 192.627 49.9416 193.732 49.9416H258.148C259.252 49.9416 260.148 50.8371 260.148 51.9416V75.0441C260.148 76.1487 259.252 77.0441 258.148 77.0441H209.7C208.858 77.0441 208.176 77.7267 208.176 78.5687C208.176 79.2802 208.668 79.897 209.361 80.0552L225.101 83.6449C225.386 83.7099 225.682 83.7116 225.968 83.6499L246.946 79.1193C247.085 79.0894 247.226 79.0742 247.368 79.0742H258.351C259.455 79.0742 260.351 79.9697 260.351 81.0742V87.9196C260.351 88.8595 259.696 89.6726 258.778 89.8734L225.966 97.0481C225.681 97.1103 225.386 97.1097 225.102 97.0461L192.585 89.7775Z" fill="#00C875"/>
<path d="M152.659 61.7879C152.659 60.6833 151.764 59.7879 150.659 59.7879H99.8453C98.7407 59.7879 97.8453 58.8925 97.8453 57.7879V49.81C97.8453 48.7055 98.7407 47.81 99.8453 47.81H168.322C169.426 47.81 170.322 48.7055 170.322 49.81V74.2321C170.322 75.3367 169.426 76.2321 168.322 76.2321H117.508C116.403 76.2321 115.508 77.1275 115.508 78.2321V78.4751C115.508 79.417 116.165 80.2313 117.085 80.4301L132.98 83.8617C133.239 83.9178 133.507 83.9216 133.768 83.8729L158.771 79.2097C158.892 79.1872 159.015 79.1758 159.138 79.1758H168.423C169.528 79.1758 170.423 80.0712 170.423 81.1758V88.4813C170.423 89.4426 169.739 90.2679 168.795 90.4465L133.772 97.0672C133.509 97.117 133.238 97.1133 132.976 97.0564L99.4209 89.7702C98.5013 89.5705 97.8453 88.7568 97.8453 87.8157V66.3557C97.8453 65.2512 98.7407 64.3557 99.8453 64.3557H150.659C151.764 64.3557 152.659 63.4603 152.659 62.3557V61.7879ZM175.833 31.5688C176.938 31.5688 177.833 32.4643 177.833 33.5688V41.6482C177.833 42.7528 176.938 43.6482 175.833 43.6482H91.8262C90.7216 43.6482 89.8262 42.7528 89.8262 41.6482V33.5688C89.8262 32.4643 90.7216 31.5688 91.8262 31.5688H175.833ZM152.761 16.3126C152.761 15.208 151.865 14.3126 150.761 14.3126H101.165C100.06 14.3126 99.1649 13.4172 99.1649 12.3126V4.33472C99.1649 3.23015 100.06 2.33472 101.165 2.33472H167.611C168.716 2.33472 169.611 3.23015 169.611 4.33472V25.3055C169.611 26.4101 168.716 27.3055 167.611 27.3055H154.761C153.656 27.3055 152.761 26.4101 152.761 25.3055V16.3126Z" fill="#00C875"/>
<path d="M67.8783 51.4642C66.7737 51.4642 65.8783 50.5688 65.8783 49.4642V34.4824C65.8783 33.3778 64.9829 32.4824 63.8783 32.4824H51.1296C50.025 32.4824 49.1296 31.5869 49.1296 30.4824V21.3879C49.1296 20.2833 50.025 19.3879 51.1296 19.3879H63.8783C64.9829 19.3879 65.8783 18.4925 65.8783 17.3879V2C65.8783 0.895428 66.7737 0 67.8783 0H81.033C82.1376 0 83.033 0.89543 83.033 2V49.4642C83.033 50.5688 82.1376 51.4642 81.033 51.4642H67.8783ZM47.5356 1.72562C48.6402 1.72562 49.5356 2.62105 49.5356 3.72562V12.6171C49.5356 13.7216 48.6402 14.6171 47.5356 14.6171H36.3095C35.2049 14.6171 34.3095 15.5125 34.3095 16.6171V25.9586C34.3095 26.3726 34.438 26.7764 34.6772 27.1143L41.8323 37.2209C42.2072 37.7505 42.8158 38.0653 43.4646 38.0653H49.5658C50.6703 38.0653 51.5658 38.9607 51.5658 40.0653V49.2612C51.5658 50.3658 50.6703 51.2612 49.5658 51.2612H34.5356C33.8847 51.2612 33.2746 50.9445 32.9 50.4122L27.4185 42.6227C26.6219 41.4907 24.9439 41.4907 24.1473 42.6227L18.6658 50.4122C18.2912 50.9445 17.681 51.2612 17.0302 51.2612H2C0.895432 51.2612 0 50.3658 0 49.2612V40.0653C0 38.9607 0.895431 38.0653 2 38.0653H8.10112C8.74998 38.0653 9.35852 37.7505 9.73345 37.2209L16.8886 27.1143C17.1278 26.7764 17.2563 26.3726 17.2563 25.9586V16.6171C17.2563 15.5125 16.3608 14.6171 15.2563 14.6171H3.82713C2.72256 14.6171 1.82713 13.7216 1.82713 12.6171V3.72562C1.82713 2.62105 2.72256 1.72562 3.82713 1.72562H47.5356ZM64.8677 79.1658C65.3156 78.7858 65.5738 78.2281 65.5738 77.6408V73.6052C65.5738 73.0179 65.3156 72.4602 64.8677 72.0802L62.7838 70.3121C62.4224 70.0054 61.9638 69.8371 61.4899 69.8371H33.521C33.0471 69.8371 32.5885 70.0054 32.2271 70.3121L30.1432 72.0802C29.6953 72.4602 29.4371 73.0179 29.4371 73.6052V77.6408C29.4371 78.2281 29.6953 78.7858 30.1432 79.1658L32.2271 80.9339C32.5885 81.2406 33.0471 81.4089 33.521 81.4089H61.4899C61.9638 81.4089 62.4224 81.2406 62.7838 80.9339L64.8677 79.1658ZM12.9933 85.0535C12.5425 84.6734 12.2824 84.1139 12.2824 83.5243V67.7217C12.2824 67.1321 12.5425 66.5726 12.9933 66.1925L24.0063 56.9089C24.367 56.6049 24.8235 56.4381 25.2953 56.4381H69.7156C70.1874 56.4381 70.644 56.6049 71.0047 56.9089L82.0176 66.1925C82.4684 66.5725 82.7285 67.1321 82.7285 67.7217V83.5243C82.7285 84.1139 82.4684 84.6734 82.0176 85.0535L71.0047 94.3371C70.644 94.6411 70.1874 94.8079 69.7156 94.8079H25.2953C24.8235 94.8079 24.367 94.6411 24.0063 94.3371L12.9933 85.0535Z" fill="#00C875"/>
</svg>
